<svg viewBox="0 0 1280 720" xmlns="http://www.w3.org/2000/svg" font-family="'Geist','Inter',ui-sans-serif,system-ui,sans-serif">
  <defs>
    <filter id="grain"><feTurbulence type="turbulence" baseFrequency="1" numOctaves="1" stitchTiles="stitch" result="noise"/>
      <feColorMatrix in="noise" type="matrix" values="0 0 0 0 0  0 0 0 0 0  0 0 0 0 0  0 0 0 1 0"/></filter>
    <style>
      .mono{font-family:'Geist Mono','JetBrains Mono',ui-monospace,monospace}
      .title{font-weight:600;font-size:33px;fill:#161310;letter-spacing:-0.5px}
      .sub{font-weight:400;font-size:14px;fill:#9a9089}
      .ax{font-weight:400;font-size:12px;fill:#9a9089}
      .leg{font-weight:400;font-size:13px;fill:#161310}
      .axtitle{font-weight:500;font-size:12px;fill:#9a9089}
      .foot{font-weight:400;font-size:12px;fill:#a89e95}
      .val{font-weight:600;font-size:26px;fill:#161310}
      .lbl{font-weight:500;font-size:13px;fill:#161310}
      .anno{font-weight:500;font-size:13px;fill:#161310}
      .annom{font-weight:400;font-size:12px;fill:#9a9089}
    </style>
  </defs>
  <rect width="1280" height="720" fill="#f4f1ea"/>
  <text x="64" y="80" class="title">Commit the offset last: a message leaves the queue only when it is safe</text>
  <text x="64" y="108" class="mono sub">AckMode.MANUAL lets the consumer pick the commit point; log0 acks only after a durable outcome, processed or quarantined</text><rect x="56" y="150" width="1160" height="462" rx="10" fill="#ffffff" fill-opacity="0.20" stroke="#16131019"/><text x="90" y="226" class="mono ax" font-size="13">@KafkaListener consume(event, ack) &#183; one handler, one try/catch, manual commit &#183; three ways a message can end:</text><rect x="90" y="254" width="5" height="64" rx="2.5" fill="#0BA06B" fill-opacity="0.85"/><text x="108" y="280" class="mono" font-size="14" font-weight="600" fill="#161310">clean log</text><text x="108" y="300" class="mono" font-size="11.5" fill="#0BA06B">durable: processed</text><rect x="312" y="260" width="146" height="52" rx="8" fill="#ffffff" fill-opacity="0.55" stroke="#161310" stroke-opacity="0.65" stroke-width="1.4"/><text x="385" y="291" text-anchor="middle" class="mono" font-size="12.5" font-weight="600" fill="#161310">normalize()</text><line x1="458" y1="286" x2="490" y2="286" stroke="#a89e95" stroke-width="1.8"/><path d="M498 286 L488 281 L488 291 Z" fill="#a89e95"/><rect x="498" y="260" width="196" height="52" rx="8" fill="#ffffff" fill-opacity="0.55" stroke="#161310" stroke-opacity="0.65" stroke-width="1.4"/><text x="596" y="283" text-anchor="middle" class="mono" font-size="12.5" font-weight="600" fill="#161310">publish</text><text x="596" y="301" text-anchor="middle" class="mono" font-size="11" fill="#9a9089">normalized-logs</text><line x1="694" y1="286" x2="728" y2="286" stroke="#a89e95" stroke-width="1.8"/><path d="M736 286 L726 281 L726 291 Z" fill="#a89e95"/><rect x="736" y="260" width="196" height="52" rx="8" fill="#ffffff" fill-opacity="0.55" stroke="#161310" stroke-opacity="0.65" stroke-width="1.4"/><text x="834" y="283" text-anchor="middle" class="mono" font-size="12.5" font-weight="600" fill="#161310">save</text><text x="834" y="301" text-anchor="middle" class="mono" font-size="11" fill="#9a9089">ClickHouse</text><line x1="932" y1="286" x2="966" y2="286" stroke="#a89e95" stroke-width="1.8"/><path d="M974 286 L964 281 L964 291 Z" fill="#a89e95"/><rect x="974" y="263" width="160" height="46" rx="23" fill="#0BA06B" fill-opacity="0.13" stroke="#0BA06B" stroke-opacity="0.7" stroke-width="1.6"/><text x="1054" y="291" text-anchor="middle" class="mono" font-size="12.5" font-weight="700" fill="#0BA06B">ACK</text><rect x="90" y="360" width="5" height="64" rx="2.5" fill="#0BA06B" fill-opacity="0.85"/><text x="108" y="386" class="mono" font-size="14" font-weight="600" fill="#161310">poison, quarantined</text><text x="108" y="406" class="mono" font-size="11.5" fill="#0BA06B">durable: raw-logs-dlq</text><rect x="312" y="366" width="146" height="52" rx="8" fill="#ffffff" fill-opacity="0.55" stroke="#fb2c36" stroke-opacity="0.65" stroke-width="1.4"/><text x="385" y="397" text-anchor="middle" class="mono" font-size="12.5" font-weight="600" fill="#fb2c36">throws</text><line x1="458" y1="392" x2="490" y2="392" stroke="#a89e95" stroke-width="1.8"/><path d="M498 392 L488 387 L488 397 Z" fill="#a89e95"/><rect x="498" y="366" width="196" height="52" rx="8" fill="#ffffff" fill-opacity="0.55" stroke="#161310" stroke-opacity="0.65" stroke-width="1.4"/><text x="596" y="389" text-anchor="middle" class="mono" font-size="12.5" font-weight="600" fill="#161310">catch: wrap</text><text x="596" y="407" text-anchor="middle" class="mono" font-size="11" fill="#9a9089">DlqEvent</text><line x1="694" y1="392" x2="728" y2="392" stroke="#a89e95" stroke-width="1.8"/><path d="M736 392 L726 387 L726 397 Z" fill="#a89e95"/><rect x="736" y="366" width="196" height="52" rx="8" fill="#ffffff" fill-opacity="0.55" stroke="#fb2c36" stroke-opacity="0.65" stroke-width="1.4"/><text x="834" y="389" text-anchor="middle" class="mono" font-size="12.5" font-weight="600" fill="#fb2c36">publish</text><text x="834" y="407" text-anchor="middle" class="mono" font-size="11" fill="#9a9089">raw-logs-dlq</text><line x1="932" y1="392" x2="966" y2="392" stroke="#a89e95" stroke-width="1.8"/><path d="M974 392 L964 387 L964 397 Z" fill="#a89e95"/><rect x="974" y="369" width="160" height="46" rx="23" fill="#0BA06B" fill-opacity="0.13" stroke="#0BA06B" stroke-opacity="0.7" stroke-width="1.6"/><text x="1054" y="397" text-anchor="middle" class="mono" font-size="12.5" font-weight="700" fill="#0BA06B">ACK</text><rect x="90" y="466" width="5" height="64" rx="2.5" fill="#fb2c36" fill-opacity="0.85"/><text x="108" y="492" class="mono" font-size="14" font-weight="600" fill="#161310">poison, swallowed</text><text x="108" y="512" class="mono" font-size="11.5" fill="#fb2c36">what log0 refuses to do</text><rect x="312" y="472" width="146" height="52" rx="8" fill="#ffffff" fill-opacity="0.55" stroke="#fb2c36" stroke-opacity="0.65" stroke-width="1.4" stroke-dasharray="5 4"/><text x="385" y="503" text-anchor="middle" class="mono" font-size="12.5" font-weight="600" fill="#fb2c36">throws</text><line x1="458" y1="498" x2="490" y2="498" stroke="#a89e95" stroke-width="1.8"/><path d="M498 498 L488 493 L488 503 Z" fill="#a89e95"/><rect x="498" y="472" width="196" height="52" rx="8" fill="#ffffff" fill-opacity="0.55" stroke="#fb2c36" stroke-opacity="0.65" stroke-width="1.4" stroke-dasharray="5 4"/><text x="596" y="503" text-anchor="middle" class="mono" font-size="12.5" font-weight="600" fill="#fb2c36">catch: log + swallow</text><line x1="694" y1="498" x2="728" y2="498" stroke="#a89e95" stroke-width="1.8"/><path d="M736 498 L726 493 L726 503 Z" fill="#a89e95"/><rect x="736" y="472" width="196" height="52" rx="8" fill="#ffffff" fill-opacity="0.55" stroke="#fb2c36" stroke-opacity="0.65" stroke-width="1.4" stroke-dasharray="5 4"/><text x="834" y="495" text-anchor="middle" class="mono" font-size="12.5" font-weight="600" fill="#fb2c36">returns OK</text><text x="834" y="513" text-anchor="middle" class="mono" font-size="11" fill="#9a9089">container auto-commits</text><line x1="932" y1="498" x2="966" y2="498" stroke="#a89e95" stroke-width="1.8"/><path d="M974 498 L964 493 L964 503 Z" fill="#a89e95"/><rect x="974" y="475" width="160" height="46" rx="23" fill="#fb2c36" fill-opacity="0.13" stroke="#fb2c36" stroke-opacity="0.7" stroke-width="1.6"/><text x="1054" y="503" text-anchor="middle" class="mono" font-size="12.5" font-weight="700" fill="#fb2c36">LOST</text><text x="90" y="560" class="mono" font-size="13" fill="#161310"><tspan font-weight="600">The rule:</tspan> the offset commits only after the event is durable - in normalized-logs + ClickHouse, or in raw-logs-dlq.</text><text x="90" y="584" class="mono" font-size="13" fill="#161310">ack.acknowledge() is the last statement on every real path; a bare catch that returns is the silent-loss bug.</text>
  <line x1="64" y1="664" x2="1216" y2="664" stroke="#16131019"/>
  <text x="64" y="690" class="mono foot">AckMode.MANUAL &#183; ack after a durable write, never on a bare catch &#183; 0 silent drops &#183; the DLQ is the receipt for what could not be parsed</text>
  
  <g transform="translate(1133,672) scale(1.125)">
    <g stroke="#0BA06B" stroke-width="1.6" opacity="0.55"><line x1="16" y1="7" x2="26" y2="16"/><line x1="16" y1="16" x2="26" y2="16"/><line x1="16" y1="25" x2="26" y2="16"/></g>
    <g fill="#0BA06B"><circle cx="5" cy="7" r="1.5" opacity="0.45"/><circle cx="5" cy="16" r="1.5" opacity="0.45"/><circle cx="5" cy="25" r="1.5" opacity="0.45"/><circle cx="11" cy="7" r="1.6" opacity="0.7"/><circle cx="11" cy="16" r="1.6" opacity="0.7"/><circle cx="11" cy="25" r="1.6" opacity="0.7"/><circle cx="16" cy="7" r="1.7"/><circle cx="16" cy="16" r="1.7"/><circle cx="16" cy="25" r="1.7"/></g>
    <circle cx="26" cy="16" r="6" fill="#0BA06B" opacity="0.18"/><circle cx="26" cy="16" r="3.6" fill="#0BA06B"/>
  </g>
  <text x="1173" y="696" text-anchor="start" class="mono" font-size="18" font-weight="500" fill="#161310">log0</text>
  <rect width="1280" height="720" filter="url(#grain)" opacity="0.5" style="mix-blend-mode:overlay"/></svg>