<svg viewBox="0 0 1280 720" xmlns="http://www.w3.org/2000/svg" font-family="'Geist','Inter',ui-sans-serif,system-ui,sans-serif">
  <defs>
    <filter id="grain"><feTurbulence type="turbulence" baseFrequency="1" numOctaves="1" stitchTiles="stitch" result="noise"/>
      <feColorMatrix in="noise" type="matrix" values="0 0 0 0 0  0 0 0 0 0  0 0 0 0 0  0 0 0 1 0"/></filter>
    <style>
      .mono{font-family:'Geist Mono','JetBrains Mono',ui-monospace,monospace}
      .title{font-weight:600;font-size:33px;fill:#161310;letter-spacing:-0.5px}
      .sub{font-weight:400;font-size:14px;fill:#9a9089}
      .ax{font-weight:400;font-size:12px;fill:#9a9089}
      .leg{font-weight:400;font-size:13px;fill:#161310}
      .axtitle{font-weight:500;font-size:12px;fill:#9a9089}
      .foot{font-weight:400;font-size:12px;fill:#a89e95}
      .val{font-weight:600;font-size:26px;fill:#161310}
      .lbl{font-weight:500;font-size:13px;fill:#161310}
      .anno{font-weight:500;font-size:13px;fill:#161310}
      .annom{font-weight:400;font-size:12px;fill:#9a9089}
    </style>
  </defs>
  <rect width="1280" height="720" fill="#f4f1ea"/>
  <text x="64" y="80" class="title">Accept fast, never block: where the answer is sent</text>
  <text x="64" y="108" class="mono sub">the gateway returns 202 the moment the event is handed to the producer future, not when Kafka acks, and never when downstream finishes</text><rect x="56" y="150" width="1160" height="462" rx="10" fill="#ffffff" fill-opacity="0.20" stroke="#16131019"/><line x1="640" y1="170" x2="640" y2="596" stroke="#16131019"/><text x="348" y="194" text-anchor="middle" class="lbl" font-size="14" fill="#fb2c36">naive: do the work, then answer</text><rect x="198" y="204" width="300" height="36" rx="8" fill="#ffffff" fill-opacity="0.55" stroke="#161310" stroke-width="1.5"/><text x="348" y="227" text-anchor="middle" class="mono" font-size="13.5" fill="#161310">POST /api/v1/logs</text><line x1="348" y1="240" x2="348" y2="248" stroke="#161310" stroke-width="1.8"/><path d="M348 256 L343 247 L353 247 Z" fill="#161310"/><rect x="198" y="256" width="300" height="36" rx="8" fill="#ffffff" fill-opacity="0.55" stroke="#161310" stroke-width="1.5"/><text x="348" y="279" text-anchor="middle" class="mono" font-size="13.5" fill="#161310">validate headers + body</text><line x1="348" y1="292" x2="348" y2="300" stroke="#161310" stroke-width="1.8"/><path d="M348 308 L343 299 L353 299 Z" fill="#161310"/><rect x="198" y="308" width="300" height="36" rx="8" fill="#ffffff" fill-opacity="0.55" stroke="#161310" stroke-width="1.5"/><text x="348" y="331" text-anchor="middle" class="mono" font-size="13.5" fill="#161310">normalize + fingerprint</text><line x1="348" y1="344" x2="348" y2="352" stroke="#161310" stroke-width="1.8"/><path d="M348 360 L343 351 L353 351 Z" fill="#161310"/><rect x="198" y="360" width="300" height="36" rx="8" fill="#ffffff" fill-opacity="0.55" stroke="#161310" stroke-width="1.5"/><text x="348" y="383" text-anchor="middle" class="mono" font-size="13.5" fill="#161310">cluster: 5-min window</text><line x1="348" y1="396" x2="348" y2="404" stroke="#161310" stroke-width="1.8"/><path d="M348 412 L343 403 L353 403 Z" fill="#161310"/><rect x="198" y="412" width="300" height="36" rx="8" fill="#ffffff" fill-opacity="0.55" stroke="#161310" stroke-width="1.5"/><text x="348" y="435" text-anchor="middle" class="mono" font-size="13.5" fill="#161310">upsert incident &#183; postgres</text><line x1="348" y1="448" x2="348" y2="456" stroke="#161310" stroke-width="1.8"/><path d="M348 464 L343 455 L353 455 Z" fill="#161310"/><rect x="198" y="464" width="300" height="36" rx="8" fill="#ffffff" fill-opacity="0.55" stroke="#161310" stroke-width="1.5"/><text x="348" y="487" text-anchor="middle" class="mono" font-size="13.5" fill="#161310">notify slack</text><line x1="348" y1="500" x2="348" y2="509" stroke="#fb2c36" stroke-width="1.8"/><path d="M348 517 L343 508 L353 508 Z" fill="#fb2c36"/><rect x="198" y="517" width="300" height="34" rx="8" fill="#fb2c36" fill-opacity="0.12" stroke="#fb2c36" stroke-width="1.8"/><text x="348" y="539" text-anchor="middle" class="mono" font-size="14" font-weight="700" fill="#fb2c36">200 OK</text><text x="348" y="572" text-anchor="middle" class="mono ax">latency = sum of every hop &#183; a slow DB or a</text><text x="348" y="589" text-anchor="middle" class="mono ax">down consumer stalls or fails the caller</text><text x="882" y="194" text-anchor="middle" class="lbl" font-size="14" fill="#0BA06B">log0: answer, then do the work</text><rect x="732" y="204" width="300" height="36" rx="8" fill="#ffffff" fill-opacity="0.55" stroke="#161310" stroke-width="1.5"/><text x="882" y="227" text-anchor="middle" class="mono" font-size="13.5" fill="#161310">POST /api/v1/logs</text><line x1="882" y1="240" x2="882" y2="248" stroke="#161310" stroke-width="1.8"/><path d="M882 256 L877 247 L887 247 Z" fill="#161310"/><rect x="732" y="256" width="300" height="36" rx="8" fill="#ffffff" fill-opacity="0.55" stroke="#161310" stroke-width="1.5"/><text x="882" y="279" text-anchor="middle" class="mono" font-size="13.5" fill="#161310">validate headers + body</text><line x1="882" y1="292" x2="882" y2="300" stroke="#161310" stroke-width="1.8"/><path d="M882 308 L877 299 L887 299 Z" fill="#161310"/><rect x="732" y="308" width="300" height="36" rx="8" fill="#ffffff" fill-opacity="0.55" stroke="#161310" stroke-width="1.5"/><text x="882" y="331" text-anchor="middle" class="mono" font-size="13.5" fill="#161310">send() &#8594; raw-logs (hand off future)</text><line x1="882" y1="344" x2="882" y2="353" stroke="#0BA06B" stroke-width="1.8"/><path d="M882 361 L877 352 L887 352 Z" fill="#0BA06B"/><rect x="732" y="361" width="300" height="34" rx="8" fill="#0BA06B" fill-opacity="0.12" stroke="#0BA06B" stroke-width="1.8"/><text x="882" y="383" text-anchor="middle" class="mono" font-size="14" font-weight="700" fill="#0BA06B">202 Accepted &#183; ~15 ms warm</text><line x1="732" y1="406" x2="1032" y2="406" stroke="#9a9089" stroke-width="1.3" stroke-dasharray="5 4"/><text x="882" y="423" text-anchor="middle" class="mono ax" fill="#9a9089">client is gone &#183; everything below runs after the response</text><rect x="732" y="434" width="300" height="118" rx="9" fill="#ffffff" fill-opacity="0.30" stroke="#16131019"/><text x="882" y="458" text-anchor="middle" class="mono ax" font-weight="600" fill="#161310">then, on Kafka consumers (async)</text><text x="882" y="482" text-anchor="middle" class="mono ax">normalize &#8594; cluster &#8594; incident &#8594; notify</text><text x="882" y="506" text-anchor="middle" class="mono ax">never on the request thread</text><text x="882" y="532" text-anchor="middle" class="mono ax">send fails &#8594; <tspan fill="#fb2c36" font-weight="600">raw-logs-dlq</tspan> (async)</text>
  <line x1="64" y1="664" x2="1216" y2="664" stroke="#16131019"/>
  <text x="64" y="690" class="mono foot">ingestion-gateway &#183; kafkaTemplate.send(...).whenComplete(...) &#183; controller returns 202 without awaiting the future &#183; first POST after warm-up: ~15 ms</text>
  
  <g transform="translate(1133,672) scale(1.125)">
    <g stroke="#0BA06B" stroke-width="1.6" opacity="0.55"><line x1="16" y1="7" x2="26" y2="16"/><line x1="16" y1="16" x2="26" y2="16"/><line x1="16" y1="25" x2="26" y2="16"/></g>
    <g fill="#0BA06B"><circle cx="5" cy="7" r="1.5" opacity="0.45"/><circle cx="5" cy="16" r="1.5" opacity="0.45"/><circle cx="5" cy="25" r="1.5" opacity="0.45"/><circle cx="11" cy="7" r="1.6" opacity="0.7"/><circle cx="11" cy="16" r="1.6" opacity="0.7"/><circle cx="11" cy="25" r="1.6" opacity="0.7"/><circle cx="16" cy="7" r="1.7"/><circle cx="16" cy="16" r="1.7"/><circle cx="16" cy="25" r="1.7"/></g>
    <circle cx="26" cy="16" r="6" fill="#0BA06B" opacity="0.18"/><circle cx="26" cy="16" r="3.6" fill="#0BA06B"/>
  </g>
  <text x="1173" y="696" text-anchor="start" class="mono" font-size="18" font-weight="500" fill="#161310">log0</text>
  <rect width="1280" height="720" filter="url(#grain)" opacity="0.5" style="mix-blend-mode:overlay"/></svg>